<?xml version="1.0" standalone="no"?>
<!DOCTYPE svg PUBLIC "-//W3C//DTD SVG 20010904//EN"
 "http://www.w3.org/TR/2001/REC-SVG-20010904/DTD/svg10.dtd">
<svg version="1.0" xmlns="http://www.w3.org/2000/svg"
 width="700.000000pt" height="700.000000pt" viewBox="0 0 700.000000 700.000000"
 preserveAspectRatio="xMidYMid meet">
<metadata>
Created by potrace 1.14, written by Peter Selinger 2001-2017
</metadata>
<g transform="translate(0.000000,700.000000) scale(0.100000,-0.100000)"
fill="#000000" stroke="none">
<path d="M333 6985 c-166 -45 -287 -171 -322 -333 -16 -76 -16 -6228 0 -6304
26 -121 114 -240 218 -292 117 -60 -118 -56 3268 -56 2260 0 3116 3 3155 11
121 26 240 114 292 218 60 117 56 -119 56 3271 0 3390 4 3154 -56 3271 -52
104 -171 192 -292 218 -39 8 -894 11 -3160 10 -2641 0 -3115 -2 -3159 -14z
m2225 -1572 c9 -25 920 -2382 944 -2443 10 -25 10 -25 20 -4 5 11 218 572 472
1245 l462 1224 647 3 647 2 0 -1930 0 -1930 -535 0 -535 0 -2 1060 -3 1060
-362 -1057 -361 -1058 -443 -3 c-243 -1 -446 1 -451 6 -4 4 -170 482 -368
1062 -199 580 -363 1056 -365 1059 -3 2 -5 -476 -5 -1062 l0 -1067 -535 0
-535 0 0 1930 0 1930 649 0 649 0 10 -27z"/>
</g>
</svg>
