<svg width="88" height="88" viewBox="0 0 88 88" fill="none" xmlns="http://www.w3.org/2000/svg">
<g clip-path="url(#clip0_704_99)">
<rect opacity="0.25" width="16" height="16" rx="8" fill="#FAFAFA"/>
<rect opacity="0.25" x="24" width="16" height="16" rx="8" fill="#FAFAFA"/>
<rect opacity="0.25" x="48" width="16" height="16" rx="8" fill="#FAFAFA"/>
<rect opacity="0.25" x="72" width="16" height="16" rx="8" fill="#FAFAFA"/>
<rect opacity="0.25" y="24" width="16" height="16" rx="8" fill="#FAFAFA"/>
<rect opacity="0.25" x="24" y="24" width="16" height="16" rx="8" fill="#FAFAFA"/>
<rect opacity="0.25" x="48" y="24" width="16" height="16" rx="8" fill="#FAFAFA"/>
<rect opacity="0.25" x="72" y="24" width="16" height="16" rx="8" fill="#FAFAFA"/>
<rect opacity="0.25" y="48" width="16" height="16" rx="8" fill="#FAFAFA"/>
<rect opacity="0.25" x="24" y="48" width="16" height="16" rx="8" fill="#FAFAFA"/>
<rect opacity="0.25" x="48" y="48" width="16" height="16" rx="8" fill="#FAFAFA"/>
<rect opacity="0.25" x="72" y="48" width="16" height="16" rx="8" fill="#FAFAFA"/>
<rect opacity="0.25" y="72" width="16" height="16" rx="8" fill="#FAFAFA"/>
<rect opacity="0.25" x="24" y="72" width="16" height="16" rx="8" fill="#FAFAFA"/>
<rect opacity="0.25" x="48" y="72" width="16" height="16" rx="8" fill="#FAFAFA"/>
<rect opacity="0.25" x="72" y="72" width="16" height="16" rx="8" fill="#FAFAFA"/>
</g>
<defs>
<clipPath id="clip0_704_99">
<rect width="88" height="88" fill="white"/>
</clipPath>
</defs>
</svg>
